<?xml version="1.0" standalone="no"?>
<!DOCTYPE svg PUBLIC "-//W3C//DTD SVG 20010904//EN"
 "http://www.w3.org/TR/2001/REC-SVG-20010904/DTD/svg10.dtd">
<svg version="1.0" xmlns="http://www.w3.org/2000/svg"
 width="1276.000000pt" height="1341.000000pt" viewBox="0 0 1276.000000 1341.000000"
 preserveAspectRatio="xMidYMid meet">
<metadata>
Created by potrace 1.15, written by Peter Selinger 2001-2017
</metadata>
<g transform="translate(0.000000,1341.000000) scale(0.100000,-0.100000)"
fill="#000000" stroke="none">
<path d="M6310 11242 c0 -4 -32 -13 -70 -20 -39 -7 -78 -16 -88 -21 -9 -5 -66
-25 -127 -44 -60 -20 -200 -67 -310 -105 -110 -38 -243 -83 -295 -100 -52 -18
-108 -37 -125 -43 -16 -5 -84 -28 -150 -51 -66 -22 -124 -43 -130 -48 -5 -4
-26 -11 -45 -15 -19 -4 -48 -13 -65 -20 -16 -8 -46 -18 -65 -24 -49 -14 -181
-59 -205 -71 -11 -5 -40 -14 -65 -21 -25 -6 -50 -15 -55 -19 -6 -5 -29 -13
-50 -19 -39 -9 -169 -53 -210 -70 -31 -12 -114 -41 -180 -61 -88 -28 -177 -59
-200 -69 -11 -6 -69 -26 -130 -45 -133 -43 -223 -74 -250 -85 -11 -5 -67 -23
-125 -42 -58 -18 -112 -36 -120 -41 -24 -12 -196 -68 -210 -68 -6 0 -26 -7
-43 -14 -35 -16 -126 -49 -197 -71 -81 -25 -284 -96 -315 -109 -16 -8 -77 -28
-135 -46 -58 -18 -109 -36 -115 -40 -5 -4 -32 -12 -58 -19 -27 -6 -59 -18 -70
-25 -12 -8 -37 -16 -55 -20 -19 -3 -48 -12 -65 -20 -38 -17 -147 -53 -200 -67
-21 -5 -45 -14 -55 -19 -18 -10 -106 -41 -187 -66 -27 -8 -59 -19 -70 -24 -11
-5 -69 -25 -130 -46 -60 -20 -119 -40 -130 -45 -11 -4 -65 -22 -120 -39 -55
-17 -114 -38 -132 -46 -17 -8 -37 -14 -45 -14 -7 0 -47 -17 -88 -37 -208 -104
-307 -323 -226 -499 63 -140 196 -210 486 -259 60 -10 10520 -6 10580 4 175
30 271 62 350 117 59 42 85 73 118 142 15 31 30 59 35 60 11 5 8 112 -3 112
-5 0 -10 6 -10 13 0 21 -48 134 -68 159 -66 85 -168 154 -277 188 -22 7 -44
16 -50 20 -5 4 -57 21 -115 39 -58 18 -115 36 -128 41 -12 6 -71 26 -130 45
-59 20 -116 40 -127 45 -11 5 -40 15 -65 21 -25 7 -49 16 -55 20 -5 4 -37 15
-70 24 -33 10 -64 21 -70 25 -5 4 -34 13 -63 20 -28 6 -54 16 -57 20 -3 4 -29
14 -57 20 -29 7 -58 16 -64 21 -5 5 -36 15 -68 23 -32 9 -63 19 -70 24 -6 5
-33 15 -61 22 -27 7 -55 17 -60 21 -6 4 -33 13 -60 20 -28 6 -59 17 -70 24
-11 7 -36 16 -55 20 -19 4 -48 13 -65 21 -42 18 -142 53 -190 65 -22 6 -49 15
-60 20 -23 11 -97 36 -250 86 -60 19 -138 46 -172 59 -34 13 -68 24 -77 24 -8
0 -17 4 -20 9 -3 5 -23 12 -43 16 -21 4 -56 15 -78 25 -23 10 -54 21 -70 25
-17 4 -39 11 -50 15 -25 12 -125 46 -190 66 -27 8 -63 21 -80 29 -16 7 -46 16
-65 20 -19 4 -39 11 -45 15 -5 5 -30 13 -55 20 -25 6 -58 18 -75 25 -16 7 -52
20 -80 29 -76 22 -148 47 -170 57 -24 11 -103 38 -250 85 -60 20 -119 40 -130
45 -26 11 -160 58 -205 70 -19 6 -48 16 -65 24 -16 7 -46 16 -65 20 -19 4 -40
12 -47 17 -7 5 -34 16 -60 23 -26 8 -86 28 -133 45 -47 17 -105 37 -130 45
-37 11 -375 128 -430 148 -8 3 -67 22 -130 42 -63 20 -124 41 -135 46 -49 21
-184 61 -227 66 -27 3 -48 10 -48 14 0 5 -27 9 -60 9 -33 0 -60 -4 -60 -8z"/>
<path d="M2545 8538 c-55 -4 -111 -12 -125 -17 -14 -5 -38 -12 -55 -15 -16 -4
-64 -23 -105 -44 -89 -44 -177 -128 -214 -204 -59 -121 -56 45 -56 -2996 1
-3010 -2 -2881 53 -2988 28 -54 89 -131 133 -167 53 -43 160 -105 210 -121 27
-9 58 -21 69 -25 65 -30 239 -31 3968 -31 4060 0 3880 -2 4005 49 71 28 178
100 223 148 76 82 112 146 146 258 17 57 18 188 18 2855 l0 2795 -32 100 c-37
115 -77 180 -158 254 -95 86 -210 133 -370 150 -111 13 -7563 11 -7710 -1z"/>
</g>
</svg>
